<svg width="88" height="88" viewBox="0 0 88 88" fill="none" xmlns="http://www.w3.org/2000/svg">
<rect x="2" y="2" width="84" height="84" rx="24" fill="white"/>
<rect x="2" y="2" width="84" height="84" rx="24" stroke="#003366" stroke-width="4"/>
<path fill-rule="evenodd" clip-rule="evenodd" d="M36.23 23.7316C36.2837 26.761 39.4777 31.6319 41.6517 30.7112C42.5912 30.2954 42.5912 29.8499 41.5712 26.6125C39.1287 18.9201 36.1763 21.2961 36.23 23.7316ZM53.9446 30.5924C53.1931 32.9388 55.7966 33.3546 57.5949 31.1864C59.4201 28.9589 61.3794 25.6324 62.4262 23.3752C63.5804 21.207 61.3258 20.1081 59.4469 21.8901C57.2192 23.9692 54.4546 28.9589 53.9446 30.5924ZM16.9586 28.7807C15.2944 29.5232 20.8773 37.1859 23.1318 37.2453C25.7622 37.3048 25.9769 36.6513 24.1518 33.9486C21.2799 29.6717 18.8642 27.9193 16.9586 28.7807ZM42.1885 39.7996C41.1955 40.8985 40.0145 42.4133 39.5582 43.1261C35.6395 49.6008 35.5858 49.6602 33.7875 48.1455C29.6272 44.7002 22.7829 42.3539 24.1249 48.3534C24.957 51.9769 27.4263 58.6001 28.0705 60.798C29.7346 66.5896 30.6203 67.54 33.5728 66.7678C40.9002 64.8075 51.368 64.7481 58.8564 66.6193C60.7084 67.0945 60.8158 66.8569 61.0037 62.7285C61.3794 54.3826 65.7276 46.2446 65.7276 43.631C65.7276 40.6906 60.7084 42.8885 53.891 48.7989L53.1931 49.3929L52.2 48.6504C50.1601 47.1357 49.1402 48.3237 50.2944 50.8482C51.2338 52.8976 52.0121 53.5807 54.0789 52.4818C55.2598 51.8581 56.8971 50.67 59.2054 48.8583C60.1179 48.1455 60.8695 47.6406 60.8695 47.7297C60.8695 48.1455 59.2322 55.9271 59.2322 55.9568L55.1525 55.5706C51.9048 55.4221 51.529 57.323 54.8841 57.8873C55.233 57.9467 58.6686 58.4219 58.6686 58.4219C58.6686 58.4219 58.5344 60.0851 58.1586 61.0356C57.756 61.986 57.085 62.2236 55.9845 61.8078C47.3687 58.6595 33.3312 62.4909 33.3044 62.4909C32.7944 62.58 28.1242 48.9474 28.4999 48.5316C28.5536 48.4722 29.1173 48.8583 29.7614 49.3929C37.0352 55.2439 37.7867 55.0657 42.5912 46.5416L44.8457 42.5321L45.7315 43.9874C48.3082 48.2346 51.9585 46.3634 49.9186 43.2449C49.2207 42.2054 48.0666 40.6609 46.2146 38.2552C45.3826 37.1562 44.1479 37.6315 42.1885 39.7996ZM77.1079 39.3541C76.1417 39.9778 71.0957 45.3239 70.5052 46.3337C69.2437 48.5613 71.874 49.0662 74.2628 47.0466C77.0542 44.7002 80.9998 40.6609 80.9998 40.1263C81.0266 39.0571 78.4231 38.5225 77.1079 39.3541ZM10.6242 53.5807C14.5429 54.6499 16.7975 54.9172 17.6832 54.3826C19.1326 53.5213 18.4616 52.8976 15.026 51.9472C14.704 51.8581 11.5368 50.8779 9.36271 50.8779C7.80597 50.8779 4.34355 51.8284 10.6242 53.5807Z" fill="#003366" stroke="#003366" stroke-width="2"/>
</svg>
